<svg xmlns="http://www.w3.org/2000/svg" viewBox="0 0 381.16 115.58"><defs><style>.cls-1{font-size:72px;fill:#eb4632;font-family:Como-ExtraBold, Como;font-weight:800;}.cls-2{fill:none;stroke:#fbb03b;stroke-linecap:round;stroke-linejoin:round;stroke-width:5px;}</style></defs><g id="Layer_2" data-name="Layer 2"><g id="Layer_1-2" data-name="Layer 1"><text class="cls-1" transform="translate(0 90.01)"><tspan xml:space="preserve">e    ee Shop</tspan></text><path class="cls-2" d="M37.26,7.12s20.8,1.65,19.08,19.54c0,0-8.2-9.42-19.71-9.08"/><path class="cls-2" d="M82,41.32s-.52-40.18,18-38.78,11,36-3.1,38.6.59-20.95,15.83-21.2,18.67,12.86,9.81,21.47-20.8,10.36-24.21,10.37"/><path class="cls-2" d="M85.63,50.24s22.48,12.63,16.31,38.06-29.34,18-38,11-14.1-25.47-9.12-35.92"/><path class="cls-2" d="M83.64,57.83S76.05,74.91,53.84,81"/><path class="cls-2" d="M85,74.22S81.25,85.33,59.23,94"/><path class="cls-2" d="M84.65,92A31.19,31.19,0,0,1,67,101.44"/><line class="cls-2" x1="91.39" y1="103.95" x2="96.47" y2="113.08"/><circle class="cls-2" cx="56.05" cy="45.42" r="15.65"/><circle class="cls-2" cx="54.19" cy="41.95" r="0.98"/></g></g></svg>